<mxfile host="app.diagrams.net" agent="Mozilla/5.0 (Macintosh; Intel Mac OS X 10.15; rv:132.0) Gecko/20100101 Firefox/132.0" version="24.9.1">
  <diagram name="Page-1" id="SQi-GQfnVkVSswx8AhRh">
    <mxGraphModel dx="954" dy="642" grid="1" gridSize="10" guides="1" tooltips="1" connect="1" arrows="1" fold="1" page="1" pageScale="1" pageWidth="900" pageHeight="1600" math="0" shadow="0">
      <root>
        <mxCell id="0" />
        <mxCell id="1" parent="0" />
        <mxCell id="KGl99FrV40Bi2zCLSono-1" value="" style="whiteSpace=wrap;html=1;aspect=fixed;direction=south;" vertex="1" parent="1">
          <mxGeometry x="260" y="130" width="380" height="380" as="geometry" />
        </mxCell>
        <mxCell id="KGl99FrV40Bi2zCLSono-2" value="&lt;div&gt;&lt;br&gt;&lt;/div&gt;&lt;div&gt;Chemist A&lt;br&gt;&lt;/div&gt;" style="shape=umlActor;verticalLabelPosition=bottom;verticalAlign=top;html=1;outlineConnect=0;direction=south;" vertex="1" parent="1">
          <mxGeometry x="125" y="275" width="60" height="30" as="geometry" />
        </mxCell>
        <mxCell id="KGl99FrV40Bi2zCLSono-3" value="Actor" style="shape=umlActor;verticalLabelPosition=bottom;verticalAlign=top;html=1;outlineConnect=0;direction=south;" vertex="1" parent="1">
          <mxGeometry x="775" y="255" width="60" height="30" as="geometry" />
        </mxCell>
      </root>
    </mxGraphModel>
  </diagram>
</mxfile>
